<?xml version="1.0" encoding="utf-8"?>
<!-- Generator: Adobe Illustrator 19.2.0, SVG Export Plug-In . SVG Version: 6.00 Build 0)  -->
<svg version="1.1" id="Layer_1" xmlns="http://www.w3.org/2000/svg" xmlns:xlink="http://www.w3.org/1999/xlink" x="0px" y="0px"
	 viewBox="0 0 455 455" style="enable-background:new 0 0 455 455;" xml:space="preserve">
<style type="text/css">
	.st0{fill:#FFFFFF;}
	.st1{fill:#333333;}
</style>
<rect x="27" y="54" class="st0" width="410" height="349"/>
<path class="st1" d="M0,0v455h455V0H0z M161.7,342.7c-64.2,0-115.2-51-115.2-115.2s51-115.2,115.2-115.2c31.3,0,57.6,11.5,77.3,31.3
	l-31.3,29.6c-8.2-8.2-23-18.1-46.1-18.1c-39.5,0-70.8,32.9-70.8,72.4s31.3,72.4,70.8,72.4c46.1,0,62.5-32.9,65.8-49.4h-65.8V211
	h108.6c1.6,6.6,1.6,11.5,1.6,19.7C271.9,296.6,227.5,342.7,161.7,342.7z M408.5,244h-32.9v32.9h-32.9V244h-32.9v-33h32.9v-32.9h32.9
	V211h32.9V244z"/>
</svg>
